HIERARCHY
ROOT hip
{
  OFFSET 5.70873 43.8894 -1.52928
  CHANNELS 6 Xposition Yposition Zposition Zrotation Xrotation Yrotation
  JOINT abdomen
  {
    OFFSET 0 5.99393 0.287273
    CHANNELS 6 Xposition Yposition Zposition Zrotation Xrotation Yrotation
    JOINT chest
    {
      OFFSET 0 6.65865 -0.856112
      CHANNELS 6 Xposition Yposition Zposition Zrotation Xrotation Yrotation
      JOINT neck
      {
        OFFSET 0 8.65624 -1.42685
        CHANNELS 6 Xposition Yposition Zposition Zrotation Xrotation Yrotation
        JOINT head
        {
          OFFSET 0 3.80999 -0.190247
          CHANNELS 6 Xposition Yposition Zposition Zrotation Xrotation Yrotation
          End Site
          {
            OFFSET 0 0 0
          }
        }
      }
      JOINT rCollar
      {
        OFFSET -1.4963 7.5744 -1.52136
        CHANNELS 6 Xposition Yposition Zposition Zrotation Xrotation Yrotation
        JOINT rShldr
        {
          OFFSET -5.47506 -0.905672 0.485692
          CHANNELS 6 Xposition Yposition Zposition Zrotation Xrotation Yrotation
          JOINT rForeArm
          {
            OFFSET -11.3069 -0.201091 0.618544
            CHANNELS 6 Xposition Yposition Zposition Zrotation Xrotation Yrotation
            JOINT rHand
            {
              OFFSET -9.61414 -0.254739 3.48553
              CHANNELS 6 Xposition Yposition Zposition Zrotation Xrotation Yrotation
              JOINT rThumb1
              {
                OFFSET 0.176263 -0.07068 1.26622
                CHANNELS 6 Xposition Yposition Zposition Zrotation Xrotation Yrotation
                JOINT rThumb2
                {
                  OFFSET -1.04683 -0.546484 1.82182
                  CHANNELS 6 Xposition Yposition Zposition Zrotation Xrotation Yrotation
                  JOINT rThumb3
                  {
                    OFFSET -0.993472 -0.621916 0.655506
                    CHANNELS 6 Xposition Yposition Zposition Zrotation Xrotation Yrotation
                    End Site
                    {
                      OFFSET -0.996134 -0.66263 0.644615
                    }
                  }
                }
              }
              JOINT rIndex1
              {
                OFFSET -2.64253 0.566363 2.4162
                CHANNELS 6 Xposition Yposition Zposition Zrotation Xrotation Yrotation
                JOINT rIndex2
                {
                  OFFSET -1.39394 -0.635138 0.899356
                  CHANNELS 6 Xposition Yposition Zposition Zrotation Xrotation Yrotation
                  JOINT rIndex3
                  {
                    OFFSET -0.622395 -0.856016 0.402182
                    CHANNELS 6 Xposition Yposition Zposition Zrotation Xrotation Yrotation
                    End Site
                    {
                      OFFSET -0.472476 -0.801802 0.34216
                    }
                  }
                }
              }
              JOINT rMid1
              {
                OFFSET -3.20814 0.514427 1.52547
                CHANNELS 6 Xposition Yposition Zposition Zrotation Xrotation Yrotation
                JOINT rMid2
                {
                  OFFSET -1.56545 -0.497974 0.68919
                  CHANNELS 6 Xposition Yposition Zposition Zrotation Xrotation Yrotation
                  JOINT rMid3
                  {
                    OFFSET -0.679943 -1.17582 0.444246
                    CHANNELS 6 Xposition Yposition Zposition Zrotation Xrotation Yrotation
                    End Site
                    {
                      OFFSET -0.343874 -0.941341 0.267611
                    }
                  }
                }
              }
              JOINT rRing1
              {
                OFFSET -3.47877 0.200518 0.597719
                CHANNELS 6 Xposition Yposition Zposition Zrotation Xrotation Yrotation
                JOINT rRing2
                {
                  OFFSET -1.28208 -0.53155 0.44672
                  CHANNELS 6 Xposition Yposition Zposition Zrotation Xrotation Yrotation
                  JOINT rRing3
                  {
                    OFFSET -0.710288 -0.970167 0.4032
                    CHANNELS 6 Xposition Yposition Zposition Zrotation Xrotation Yrotation
                    End Site
                    {
                      OFFSET -0.403228 -0.950952 0.378354
                    }
                  }
                }
              }
              JOINT rPinky1
              {
                OFFSET -3.42483 -0.278904 -0.240415
                CHANNELS 6 Xposition Yposition Zposition Zrotation Xrotation Yrotation
                JOINT rPinky2
                {
                  OFFSET -1.05787 -0.635999 0.156459
                  CHANNELS 6 Xposition Yposition Zposition Zrotation Xrotation Yrotation
                  JOINT rPinky3
                  {
                    OFFSET -0.42815 -0.754232 0.287187
                    CHANNELS 6 Xposition Yposition Zposition Zrotation Xrotation Yrotation
                    End Site
                    {
                      OFFSET -0.235717 -0.725605 0.279416
                    }
                  }
                }
              }
            }
          }
        }
      }
      JOINT lCollar
      {
        OFFSET 1.4963 7.5744 -1.52136
        CHANNELS 6 Xposition Yposition Zposition Zrotation Xrotation Yrotation
        JOINT lShldr
        {
          OFFSET 5.47506 -0.905672 0.485692
          CHANNELS 6 Xposition Yposition Zposition Zrotation Xrotation Yrotation
          JOINT lForeArm
          {
            OFFSET 11.3069 -0.201091 0.618544
            CHANNELS 6 Xposition Yposition Zposition Zrotation Xrotation Yrotation
            JOINT lHand
            {
              OFFSET 9.61414 -0.254739 3.48553
              CHANNELS 6 Xposition Yposition Zposition Zrotation Xrotation Yrotation
              JOINT lThumb1
              {
                OFFSET -0.176263 -0.07068 1.26622
                CHANNELS 6 Xposition Yposition Zposition Zrotation Xrotation Yrotation
                JOINT lThumb2
                {
                  OFFSET 1.04683 -0.546484 1.82182
                  CHANNELS 6 Xposition Yposition Zposition Zrotation Xrotation Yrotation
                  JOINT lThumb3
                  {
                    OFFSET 0.993472 -0.621916 0.655506
                    CHANNELS 6 Xposition Yposition Zposition Zrotation Xrotation Yrotation
                    End Site
                    {
                      OFFSET 0.996134 -0.66263 0.644615
                    }
                  }
                }
              }
              JOINT lIndex1
              {
                OFFSET 2.64253 0.566363 2.4162
                CHANNELS 6 Xposition Yposition Zposition Zrotation Xrotation Yrotation
                JOINT lIndex2
                {
                  OFFSET 1.39394 -0.635138 0.899356
                  CHANNELS 6 Xposition Yposition Zposition Zrotation Xrotation Yrotation
                  JOINT lIndex3
                  {
                    OFFSET 0.622395 -0.856016 0.402182
                    CHANNELS 6 Xposition Yposition Zposition Zrotation Xrotation Yrotation
                    End Site
                    {
                      OFFSET 0.472476 -0.801802 0.34216
                    }
                  }
                }
              }
              JOINT lMid1
              {
                OFFSET 3.20814 0.514427 1.52547
                CHANNELS 6 Xposition Yposition Zposition Zrotation Xrotation Yrotation
                JOINT lMid2
                {
                  OFFSET 1.56545 -0.497974 0.68919
                  CHANNELS 6 Xposition Yposition Zposition Zrotation Xrotation Yrotation
                  JOINT lMid3
                  {
                    OFFSET 0.679943 -1.17582 0.444246
                    CHANNELS 6 Xposition Yposition Zposition Zrotation Xrotation Yrotation
                    End Site
                    {
                      OFFSET 0.343874 -0.941341 0.267611
                    }
                  }
                }
              }
              JOINT lRing1
              {
                OFFSET 3.47877 0.200518 0.597719
                CHANNELS 6 Xposition Yposition Zposition Zrotation Xrotation Yrotation
                JOINT lRing2
                {
                  OFFSET 1.28208 -0.53155 0.44672
                  CHANNELS 6 Xposition Yposition Zposition Zrotation Xrotation Yrotation
                  JOINT lRing3
                  {
                    OFFSET 0.710288 -0.970167 0.4032
                    CHANNELS 6 Xposition Yposition Zposition Zrotation Xrotation Yrotation
                    End Site
                    {
                      OFFSET 0.403228 -0.950952 0.378354
                    }
                  }
                }
              }
              JOINT lPinky1
              {
                OFFSET 3.42483 -0.278904 -0.240415
                CHANNELS 6 Xposition Yposition Zposition Zrotation Xrotation Yrotation
                JOINT lPinky2
                {
                  OFFSET 1.05787 -0.635999 0.156459
                  CHANNELS 6 Xposition Yposition Zposition Zrotation Xrotation Yrotation
                  JOINT lPinky3
                  {
                    OFFSET 0.42815 -0.754232 0.287187
                    CHANNELS 6 Xposition Yposition Zposition Zrotation Xrotation Yrotation
                    End Site
                    {
                      OFFSET 0.235717 -0.725605 0.279416
                    }
                  }
                }
              }
            }
          }
        }
      }
    }
  }
  JOINT rThigh
  {
    OFFSET -4.17848 -1.02486 0.046356
    CHANNELS 6 Xposition Yposition Zposition Zrotation Xrotation Yrotation
    JOINT rShin
    {
      OFFSET 1.27155 -17.465 -0.237699
      CHANNELS 6 Xposition Yposition Zposition Zrotation Xrotation Yrotation
      JOINT rFoot
      {
        OFFSET 0.529163 -17.3815 -1.19582
        CHANNELS 6 Xposition Yposition Zposition Zrotation Xrotation Yrotation
        JOINT rToe
        {
          OFFSET -0.711591 -4.4863 4.0596
          CHANNELS 6 Xposition Yposition Zposition Zrotation Xrotation Yrotation
          End Site
          {
            OFFSET -0.869915 -1.10655 1.99006
          }
        }
      }
    }
  }
  JOINT lThigh
  {
    OFFSET 4.17848 -1.02486 0.046356
    CHANNELS 6 Xposition Yposition Zposition Zrotation Xrotation Yrotation
    JOINT lShin
    {
      OFFSET -1.27155 -17.465 -0.237699
      CHANNELS 6 Xposition Yposition Zposition Zrotation Xrotation Yrotation
      JOINT lFoot
      {
        OFFSET -0.529163 -17.3815 -1.19582
        CHANNELS 6 Xposition Yposition Zposition Zrotation Xrotation Yrotation
        JOINT lToe
        {
          OFFSET 0.711591 -4.4863 4.0596
          CHANNELS 6 Xposition Yposition Zposition Zrotation Xrotation Yrotation
          End Site
          {
            OFFSET 0.869915 -1.10655 1.99006
          }
        }
      }
    }
  }
}
MOTION
Frames:	4
Frame Time:	0.0333333
-2.15569 53.3405 12.0157 0.991475 36.6236 -106.887 0 5.99393 0.287273 8.50926 3.92756 -6.65349 -1.77636e-015 6.65865 -0.856112 17.4642 6.79932 -13.8536 2.66454e-015 8.65624 -1.42685 -0.353751 7.58152 -8.70915 0 3.80999 -0.190247 26.0442 5.26829 1.31221 -1.4963 7.5744 -1.52136 -23.823 -0.163986 0.0182163 -5.47506 -0.905672 0.485692 23.5093 -33.261 57.7314 -11.3069 -0.201091 0.618544 -16.0851 2.18355 4.90492 -9.61414 -0.254739 3.48553 144.673 -55.6967 131.772 0.176263 -0.07068 1.26622 -15.6871 50.412 18.5117 -1.04683 -0.546484 1.82182 -0.515935 0.557625 -1.56016 -0.993472 -0.621916 0.655506 -2.72965 3.3553 -8.82948 -2.64253 0.566363 2.4162 -23.6212 5.47106 -14.5208 -1.39394 -0.635138 0.899356 39.8961 7.70406 -8.81748 -0.622395 -0.856016 0.402182 39.2014 7.6294 -8.62658 -3.20814 0.514427 1.52547 -0.840481 5.94957 -9.82427 -1.56545 -0.497974 0.68919 52.7411 10.5331 -13.0893 -0.679943 -1.17582 0.444246 44.481 9.78102 -10.5179 -3.47877 0.200518 0.597719 16.3707 -0.644936 -5.84616 -1.28208 -0.53155 0.44672 37.8364 9.7177 -10.3215 -0.710288 -0.970167 0.4032 39.1355 9.9111 -10.7659 -3.42483 -0.278904 -0.240415 24.5435 -1.9043 -2.26385 -1.05787 -0.635999 0.156459 31.0686 9.47873 -7.89277 -0.42815 -0.754232 0.287187 30.9985 9.46368 -7.8699 1.4963 7.5744 -1.52136 13.2669 -1.66141 -17.9495 5.47506 -0.905672 0.485692 -61.628 16.1965 -73.927 11.3069 -0.201091 0.618544 -10.0717 -5.13294 -36.6496 9.61414 -0.254739 3.48553 -44.1929 -44.4923 -35.581 -0.176263 -0.07068 1.26622 13.6404 51.2205 -12.3706 1.04683 -0.546484 1.82182 -0.616386 -0.176696 -1.09603 0.993472 -0.621916 0.655506 6.45119 2.66711 11.8095 2.64253 0.566363 2.4162 25.5719 0.750907 11.2479 1.39394 -0.635138 0.899356 -38.7369 6.7756 17.9172 0.622395 -0.856016 0.402182 -44.3803 6.69828 20.7066 3.20814 0.514427 1.52547 8.42328 3.27859 7.7366 1.56545 -0.497974 0.68919 -44.4868 8.35702 21.4002 0.679943 -1.17582 0.444246 -36.6966 8.16266 17.373 3.47877 0.200518 0.597719 -9.96608 -2.08164 6.741 1.28208 -0.53155 0.44672 -30.1365 8.21143 15.6838 0.710288 -0.970167 0.4032 -31.3515 8.35421 16.3682 3.42483 -0.278904 -0.240415 -18.7509 -3.10843 4.86502 1.05787 -0.635999 0.156459 -23.8602 8.01992 12.087 0.42815 -0.754232 0.287187 -23.7951 8.00594 12.051 -4.17848 -1.02486 0.046356 28.1032 -74.8168 59.8108 1.27155 -17.465 -0.237699 72.3286 80.2456 -69.4287 0.529163 -17.3815 -1.19582 0.106161 13.848 -3.84626 -0.711591 -4.4863 4.0596 0.818251 5.90214 -0.200642 4.17848 -1.02486 0.046356 12.0188 -7.84181 -3.94011 -1.27155 -17.465 -0.237699 0.152575 -3.09627 -0.381188 -0.529163 -17.3815 -1.19582 -14.6457 10.7539 -1.08258 0.711591 -4.4863 4.0596 -1.35533 11.3803 -0.439777 
-4.30227 53.5582 13.1257 7.40301 36.3865 -115.398 0 5.99393 0.287273 8.88219 3.49572 -7.15389 3.55271e-015 6.65865 -0.856112 18.1669 5.81752 -14.7918 -1.77636e-015 8.65624 -1.42685 -0.262786 10.6406 -6.50592 8.88178e-016 3.80999 -0.190247 26.0373 5.02817 2.765 -1.4963 7.5744 -1.52136 -21.7638 -0.141121 0.0499665 -5.47506 -0.905672 0.485692 21.4658 -33.7323 57.1708 -11.3069 -0.201091 0.618544 -17.0216 5.06082 6.61181 -9.61414 -0.254739 3.48553 148.331 -52.0769 134.714 0.176263 -0.07068 1.26622 -15.6871 50.412 18.5117 -1.04683 -0.546484 1.82182 -0.515934 0.557627 -1.56017 -0.993472 -0.621916 0.655506 -2.72963 3.35531 -8.82949 -2.64253 0.566363 2.4162 -23.6212 5.47096 -14.5209 -1.39394 -0.635138 0.899356 39.8961 7.70394 -8.81742 -0.622395 -0.856016 0.402182 39.2014 7.62941 -8.62659 -3.20814 0.514427 1.52547 -0.840456 5.94958 -9.82428 -1.56545 -0.497974 0.68919 52.7411 10.5331 -13.0894 -0.679943 -1.17582 0.444246 44.481 9.78102 -10.5178 -3.47877 0.200518 0.597719 16.3708 -0.644927 -5.84618 -1.28208 -0.53155 0.44672 37.8364 9.71775 -10.3215 -0.710288 -0.970167 0.4032 39.1355 9.91111 -10.7659 -3.42483 -0.278904 -0.240415 24.5435 -1.90428 -2.26388 -1.05787 -0.635999 0.156459 31.0686 9.47874 -7.89276 -0.42815 -0.754232 0.287187 30.9985 9.46373 -7.86989 1.4963 7.5744 -1.52136 12.8181 -1.67808 -18.1387 5.47506 -0.905672 0.485692 -61.479 16.2574 -73.6334 11.3069 -0.201091 0.618544 -10.3839 -3.92744 -36.401 9.61414 -0.254739 3.48553 -46.9272 -44.645 -38.3677 -0.176263 -0.07068 1.26622 13.6404 51.2205 -12.3706 1.04683 -0.546484 1.82182 -0.616405 -0.176698 -1.09603 0.993472 -0.621916 0.655506 6.45116 2.66704 11.8095 2.64253 0.566363 2.4162 25.5719 0.750886 11.2479 1.39394 -0.635138 0.899356 -38.7369 6.77558 17.9172 0.622395 -0.856016 0.402182 -44.3803 6.69824 20.7066 3.20814 0.514427 1.52547 8.42326 3.27854 7.73661 1.56545 -0.497974 0.68919 -44.4869 8.35701 21.4002 0.679943 -1.17582 0.444246 -36.6966 8.16289 17.3729 3.47877 0.200518 0.597719 -9.9661 -2.08166 6.74102 1.28208 -0.53155 0.44672 -30.1365 8.21142 15.6838 0.710288 -0.970167 0.4032 -31.3515 8.35419 16.3681 3.42483 -0.278904 -0.240415 -18.7509 -3.10832 4.86507 1.05787 -0.635999 0.156459 -23.8602 8.02013 12.087 0.42815 -0.754232 0.287187 -23.7951 8.00595 12.051 -4.17848 -1.02486 0.046356 28.6415 -76.6262 59.1662 1.27155 -17.465 -0.237699 100.579 80.5312 -98.7658 0.529163 -17.3815 -1.19582 -2.83254 11.8674 -3.91926 -0.711591 -4.4863 4.0596 0.866215 6.24171 -0.214798 4.17848 -1.02486 0.046356 12.3385 -8.04919 -2.26051 -1.27155 -17.465 -0.237699 0.158 -3.06682 -0.478034 -0.529163 -17.3815 -1.19582 -15.5776 10.3356 -0.570442 0.711591 -4.4863 4.0596 -1.33973 11.247 -0.436137 
-6.58486 53.773 13.8965 13.7607 35.2281 -123.683 -1.06581e-014 5.99393 0.287273 9.12736 3.06396 -8.01899 1.77636e-015 6.65865 -0.856112 18.618 4.78874 -16.4448 3.55271e-015 8.65624 -1.42685 -0.13434 14.3275 -3.46093 0 3.80999 -0.190247 26.1214 4.19178 4.36745 -1.4963 7.5744 -1.52136 -19.2598 -0.132504 1.147 -5.47506 -0.905672 0.485692 20.1305 -34.1139 57.4787 -11.3069 -0.201091 0.618544 -18.0425 7.09693 6.88618 -9.61414 -0.254739 3.48553 149.072 -49.5898 134.524 0.176263 -0.07068 1.26622 -15.6871 50.4121 18.5117 -1.04683 -0.546484 1.82182 -0.515915 0.557626 -1.56015 -0.993472 -0.621916 0.655506 -2.72964 3.3553 -8.82947 -2.64253 0.566363 2.4162 -23.6212 5.47098 -14.5209 -1.39394 -0.635138 0.899356 39.8961 7.70396 -8.81742 -0.622395 -0.856016 0.402182 39.2013 7.62944 -8.62658 -3.20814 0.514427 1.52547 -0.840476 5.94959 -9.82428 -1.56545 -0.497974 0.68919 52.7411 10.533 -13.0893 -0.679943 -1.17582 0.444246 44.481 9.78104 -10.5178 -3.47877 0.200518 0.597719 16.3707 -0.644902 -5.8462 -1.28208 -0.53155 0.44672 37.8363 9.7178 -10.3215 -0.710288 -0.970167 0.4032 39.1354 9.9111 -10.7659 -3.42483 -0.278904 -0.240415 24.5434 -1.90423 -2.2639 -1.05787 -0.635999 0.156459 31.0686 9.47876 -7.89273 -0.42815 -0.754232 0.287187 30.9985 9.46356 -7.86994 1.4963 7.5744 -1.52136 12.711 -1.6081 -17.3598 5.47506 -0.905672 0.485692 -61.4852 16.5834 -73.4614 11.3069 -0.201091 0.618544 -10.2595 -2.82391 -35.4452 9.61414 -0.254739 3.48553 -50.2068 -44.5556 -41.5401 -0.176263 -0.07068 1.26622 13.6404 51.2205 -12.3706 1.04683 -0.546484 1.82182 -0.61645 -0.176742 -1.09601 0.993472 -0.621916 0.655506 6.45121 2.66719 11.8095 2.64253 0.566363 2.4162 25.5719 0.750871 11.2479 1.39394 -0.635138 0.899356 -38.7369 6.77553 17.9172 0.622395 -0.856016 0.402182 -44.3803 6.69816 20.7065 3.20814 0.514427 1.52547 8.42326 3.27848 7.73661 1.56545 -0.497974 0.68919 -44.4868 8.35695 21.4002 0.679943 -1.17582 0.444246 -36.6966 8.16293 17.3729 3.47877 0.200518 0.597719 -9.96608 -2.08169 6.741 1.28208 -0.53155 0.44672 -30.1365 8.21141 15.6838 0.710288 -0.970167 0.4032 -31.3515 8.35415 16.3681 3.42483 -0.278904 -0.240415 -18.7509 -3.10833 4.86506 1.05787 -0.635999 0.156459 -23.8602 8.02013 12.087 0.42815 -0.754232 0.287187 -23.7951 8.00595 12.051 -4.17848 -1.02486 0.046356 27.553 -78.2504 56.7489 1.27155 -17.465 -0.237699 122.905 79.5514 -121.788 0.529163 -17.3815 -1.19582 -5.03004 10.1595 -4.45227 -0.711591 -4.4863 4.0596 0.972142 6.9884 -0.247001 4.17848 -1.02486 0.046356 12.8757 -8.16511 -0.526453 -1.27155 -17.465 -0.237699 0.165702 -3.12339 -0.507976 -0.529163 -17.3815 -1.19582 -15.6749 10.577 -0.812581 0.711591 -4.4863 4.0596 -1.30473 10.9483 -0.427836 
-8.95419 53.9608 14.3359 19.5995 33.3366 -131.903 3.55271e-015 5.99393 0.287273 9.36281 2.74943 -8.70302 7.10543e-015 6.65865 -0.856112 19.0517 4.01839 -17.7542 -1.77636e-015 8.65624 -1.42685 -0.0110441 16.893 -0.666225 0 3.80999 -0.190247 25.9333 3.56842 5.70227 -1.4963 7.5744 -1.52136 -16.6524 -0.1225 2.18159 -5.47506 -0.905672 0.485692 19.0697 -35.0243 57.8748 -11.3069 -0.201091 0.618544 -17.7179 7.53614 6.90321 -9.61414 -0.254739 3.48553 147.539 -48.9559 132.413 0.176263 -0.07068 1.26622 -15.6872 50.4121 18.5117 -1.04683 -0.546484 1.82182 -0.515931 0.557627 -1.56016 -0.993472 -0.621916 0.655506 -2.72965 3.35531 -8.82948 -2.64253 0.566363 2.4162 -23.6212 5.47098 -14.5209 -1.39394 -0.635138 0.899356 39.8961 7.70397 -8.81743 -0.622395 -0.856016 0.402182 39.2013 7.6295 -8.62659 -3.20814 0.514427 1.52547 -0.840477 5.94959 -9.82428 -1.56545 -0.497974 0.68919 52.7411 10.533 -13.0893 -0.679943 -1.17582 0.444246 44.481 9.78108 -10.5179 -3.47877 0.200518 0.597719 16.3707 -0.644873 -5.8462 -1.28208 -0.53155 0.44672 37.8364 9.71769 -10.3215 -0.710288 -0.970167 0.4032 39.1354 9.91114 -10.7659 -3.42483 -0.278904 -0.240415 24.5435 -1.90434 -2.26386 -1.05787 -0.635999 0.156459 31.0686 9.47878 -7.89272 -0.42815 -0.754232 0.287187 30.9985 9.46357 -7.86994 1.4963 7.5744 -1.52136 13.2257 -1.56787 -16.2937 5.47506 -0.905672 0.485692 -61.7355 17.7006 -74.0153 11.3069 -0.201091 0.618544 -9.27925 -2.25797 -34.077 9.61414 -0.254739 3.48553 -53.8912 -44.1324 -44.8273 -0.176263 -0.07068 1.26622 13.6404 51.2204 -12.3706 1.04683 -0.546484 1.82182 -0.616481 -0.176823 -1.09596 0.993472 -0.621916 0.655506 6.45122 2.66719 11.8095 2.64253 0.566363 2.4162 25.5719 0.7508 11.248 1.39394 -0.635138 0.899356 -38.7369 6.77543 17.9172 0.622395 -0.856016 0.402182 -44.3803 6.69828 20.7066 3.20814 0.514427 1.52547 8.42331 3.27864 7.73659 1.56545 -0.497974 0.68919 -44.4868 8.35684 21.4002 0.679943 -1.17582 0.444246 -36.6967 8.16294 17.3728 3.47877 0.200518 0.597719 -9.96612 -2.08179 6.74099 1.28208 -0.53155 0.44672 -30.1365 8.21143 15.6839 0.710288 -0.970167 0.4032 -31.3515 8.3543 16.3681 3.42483 -0.278904 -0.240415 -18.7509 -3.10835 4.86504 1.05787 -0.635999 0.156459 -23.8602 8.02012 12.087 0.42815 -0.754232 0.287187 -23.7951 8.00597 12.0509 -4.17848 -1.02486 0.046356 24.0967 -79.1506 51.7581 1.27155 -17.465 -0.237699 135.837 77.9202 -135.136 0.529163 -17.3815 -1.19582 -6.47841 9.46011 -5.247 -0.711591 -4.4863 4.0596 0.960447 6.90628 -0.243388 4.17848 -1.02486 0.046356 13.4733 -8.08819 -0.0205653 -1.27155 -17.465 -0.237699 0.174878 -3.20354 -0.458109 -0.529163 -17.3815 -1.19582 -14.2073 10.5667 -0.918932 0.711591 -4.4863 4.0596 -1.32411 11.1137 -0.432476 
